<svg width="20" height="21" viewBox="0 0 20 21" fill="none" xmlns="http://www.w3.org/2000/svg">
<path d="M20 10.4308C20 9.59184 19.9319 8.9796 19.7846 8.34469H10.2041V12.1315H15.8276C15.7143 13.0726 15.1021 14.4898 13.7415 15.4421L13.7224 15.5689L16.7516 17.9156L16.9615 17.9365C18.8889 16.1565 20 13.5374 20 10.4308Z" fill="#4285F4"/>
<path d="M10.2041 20.4082C12.9592 20.4082 15.2721 19.5011 16.9615 17.9365L13.7415 15.4421C12.8798 16.043 11.7233 16.4626 10.2041 16.4626C7.5057 16.4626 5.21546 14.6826 4.39906 12.2222L4.27939 12.2324L1.12961 14.6701L1.08842 14.7846C2.76641 18.1179 6.21313 20.4082 10.2041 20.4082Z" fill="#34A853"/>
<path d="M4.39906 12.2222C4.18364 11.5873 4.05897 10.907 4.05897 10.2041C4.05897 9.50108 4.18363 8.82083 4.38772 8.18592L4.38201 8.0507L1.19276 5.57389L1.08841 5.62353C0.39683 7.00676 0 8.56008 0 10.2041C0 11.8481 0.39684 13.4013 1.08842 14.7846L4.39906 12.2222Z" fill="#FBBC05"/>
<path d="M10.2041 3.94555C12.1202 3.94555 13.4127 4.77321 14.1496 5.46487L17.0295 2.65306C15.2608 1.00907 12.9592 0 10.2041 0C6.21313 0 2.7664 2.29022 1.08841 5.62353L4.38772 8.18592C5.21545 5.72561 7.5057 3.94555 10.2041 3.94555Z" fill="#EB4335"/>
</svg>
