<svg width="85" height="20" viewBox="0 0 85 20" fill="none" xmlns="http://www.w3.org/2000/svg">
<path d="M18.719 18.736C18.719 19 18.503 19 18.335 19H13.607C13.415 19 13.271 18.784 13.271 18.52V11.008C13.271 10.816 13.271 10.792 13.127 10.792C13.031 10.792 12.983 10.864 12.887 11.008L11.111 13.648C10.871 14.008 10.727 14.104 10.463 14.104H9.071C8.807 14.104 8.663 14.008 8.423 13.648L6.647 11.008C6.551 10.864 6.503 10.792 6.407 10.792C6.263 10.792 6.263 10.816 6.263 11.008V18.52C6.263 18.784 6.119 19 5.927 19H1.199C1.031 19 0.815 19 0.815 18.736V2.008C0.815 1.552 1.199 1.168 1.655 1.168H4.799C5.519 1.168 5.879 1.432 6.191 1.96L9.479 7.264C9.575 7.432 9.671 7.528 9.767 7.528C9.863 7.528 9.959 7.432 10.055 7.264L13.343 1.96C13.655 1.432 14.015 1.168 14.735 1.168H17.879C18.335 1.168 18.719 1.552 18.719 2.008V18.736ZM34.2041 12.472C34.2041 17.104 31.7081 19.24 27.6041 19.24C23.5001 19.24 21.0041 17.104 21.0041 12.472V11.368C21.0041 6.736 23.5001 4.6 27.6041 4.6C31.7081 4.6 34.2041 6.736 34.2041 11.368V12.472ZM28.8761 12.472V11.368C28.8761 9.496 28.4201 9.016 27.6041 9.016C26.7881 9.016 26.3321 9.496 26.3321 11.368V12.472C26.3321 14.344 26.7881 14.824 27.6041 14.824C28.4201 14.824 28.8761 14.344 28.8761 12.472ZM49.4341 4.84C49.6741 4.84 49.9621 4.936 49.8421 5.344L46.9621 15.904C46.1221 18.976 44.2021 19.24 42.4021 19.24C40.6021 19.24 38.6821 18.976 37.8421 15.904L34.9621 5.344C34.8421 4.936 35.1301 4.84 35.3701 4.84H40.0981C40.3861 4.84 40.5781 5.08 40.6261 5.344L42.1861 13.432C42.2341 13.624 42.2821 13.792 42.4021 13.792C42.5221 13.792 42.5701 13.624 42.6181 13.432L44.1781 5.344C44.2261 5.08 44.4181 4.84 44.7061 4.84H49.4341ZM56.9789 3.256C56.9789 3.544 56.7149 3.76 56.4269 3.76H51.8909C51.6029 3.76 51.3389 3.544 51.3389 3.256V0.808C51.3389 0.519999 51.6029 0.303999 51.8909 0.303999H56.4269C56.7149 0.303999 56.9789 0.519999 56.9789 0.808V3.256ZM56.8589 18.472C56.8589 18.76 56.6189 19 56.3309 19H52.0349C51.7469 19 51.4829 18.76 51.4829 18.472V5.344C51.4829 5.056 51.7469 4.84 52.0349 4.84H56.3309C56.6189 4.84 56.8589 5.056 56.8589 5.344V18.472ZM72.0054 12.808C72.0054 13.096 71.7654 13.312 71.4774 13.312H64.2294C64.2294 14.512 64.6614 14.848 66.2934 14.848C67.3254 14.848 69.9654 14.752 70.8054 14.68C71.1414 14.656 71.3334 14.728 71.3334 15.112V17.632C71.3334 18.04 71.2374 18.184 70.8774 18.328C69.3654 18.952 67.3254 19.24 65.3814 19.24C61.8294 19.24 58.9494 17.32 58.9494 12.808V11.344C58.9494 6.736 61.5414 4.6 65.6214 4.6C70.0614 4.6 72.0054 7.264 72.0054 11.344V12.808ZM66.9414 10.624C66.9414 9.472 66.6534 8.632 65.5734 8.632C64.5894 8.632 64.2294 9.472 64.2294 10.624H66.9414ZM84.6641 14.68C84.6641 17.248 82.8881 19.24 78.6401 19.24C76.5761 19.24 75.1121 18.928 74.1521 18.616C73.8881 18.52 73.6961 18.376 73.6961 18.088V15.088C73.6961 14.68 73.8401 14.464 74.3201 14.536C75.7601 14.752 77.6561 14.992 78.4961 14.992C79.1441 14.992 79.3361 14.872 79.3361 14.512C79.3361 14.344 79.2641 14.2 78.7841 13.96L76.0481 12.568C74.3681 11.728 73.6241 10.48 73.6241 8.56C73.6241 6.088 75.4241 4.6 79.2641 4.6C81.0401 4.6 82.7921 4.96 83.8481 5.248C84.1121 5.32 84.3521 5.464 84.3521 5.752V8.872C84.3521 9.184 84.2561 9.448 83.8481 9.376C83.1281 9.256 80.5121 8.944 79.5761 8.944C79.2161 8.944 79.0721 9.016 79.0721 9.208C79.0721 9.352 79.1441 9.448 79.3841 9.568L82.0241 10.864C83.9921 11.824 84.6641 13.264 84.6641 14.68Z" fill="url(#paint0_linear_624_157)"/>
<defs>
<linearGradient id="paint0_linear_624_157" x1="-1" y1="12.5" x2="86" y2="12.5" gradientUnits="userSpaceOnUse">
<stop stop-color="#8A00F7"/>
<stop offset="1" stop-color="#B352FF"/>
</linearGradient>
</defs>
</svg>
