<svg width="204" height="47" viewBox="0 0 204 47" fill="none" xmlns="http://www.w3.org/2000/svg">
<path d="M44.0293 45.362C44.0293 46 43.5073 46 43.1013 46H31.6753C31.2113 46 30.8633 45.478 30.8633 44.84V26.686C30.8633 26.222 30.8633 26.164 30.5153 26.164C30.2833 26.164 30.1673 26.338 29.9353 26.686L25.6433 33.066C25.0633 33.936 24.7153 34.168 24.0773 34.168H20.7133C20.0753 34.168 19.7273 33.936 19.1473 33.066L14.8553 26.686C14.6233 26.338 14.5073 26.164 14.2753 26.164C13.9273 26.164 13.9273 26.222 13.9273 26.686V44.84C13.9273 45.478 13.5793 46 13.1153 46H1.68925C1.28325 46 0.76125 46 0.76125 45.362V4.936C0.76125 3.834 1.68925 2.906 2.79125 2.906H10.3893C12.1293 2.906 12.9993 3.544 13.7533 4.82L21.6993 17.638C21.9313 18.044 22.1633 18.276 22.3953 18.276C22.6273 18.276 22.8593 18.044 23.0913 17.638L31.0373 4.82C31.7913 3.544 32.6613 2.906 34.4013 2.906H41.9993C43.1013 2.906 44.0293 3.834 44.0293 4.936V45.362ZM81.4515 30.224C81.4515 41.418 75.4195 46.58 65.5015 46.58C55.5835 46.58 49.5515 41.418 49.5515 30.224V27.556C49.5515 16.362 55.5835 11.2 65.5015 11.2C75.4195 11.2 81.4515 16.362 81.4515 27.556V30.224ZM68.5755 30.224V27.556C68.5755 23.032 67.4735 21.872 65.5015 21.872C63.5295 21.872 62.4275 23.032 62.4275 27.556V30.224C62.4275 34.748 63.5295 35.908 65.5015 35.908C67.4735 35.908 68.5755 34.748 68.5755 30.224ZM118.257 11.78C118.837 11.78 119.533 12.012 119.243 12.998L112.283 38.518C110.253 45.942 105.613 46.58 101.263 46.58C96.9135 46.58 92.2735 45.942 90.2435 38.518L83.2835 12.998C82.9935 12.012 83.6895 11.78 84.2695 11.78H95.6955C96.3915 11.78 96.8555 12.36 96.9715 12.998L100.741 32.544C100.857 33.008 100.973 33.414 101.263 33.414C101.553 33.414 101.669 33.008 101.785 32.544L105.555 12.998C105.671 12.36 106.135 11.78 106.831 11.78H118.257ZM136.491 7.952C136.491 8.648 135.853 9.17 135.157 9.17H124.195C123.499 9.17 122.861 8.648 122.861 7.952V2.036C122.861 1.34 123.499 0.817997 124.195 0.817997H135.157C135.853 0.817997 136.491 1.34 136.491 2.036V7.952ZM136.201 44.724C136.201 45.42 135.621 46 134.925 46H124.543C123.847 46 123.209 45.42 123.209 44.724V12.998C123.209 12.302 123.847 11.78 124.543 11.78H134.925C135.621 11.78 136.201 12.302 136.201 12.998V44.724ZM172.805 31.036C172.805 31.732 172.225 32.254 171.529 32.254H154.013C154.013 35.154 155.057 35.966 159.001 35.966C161.495 35.966 167.875 35.734 169.905 35.56C170.717 35.502 171.181 35.676 171.181 36.604V42.694C171.181 43.68 170.949 44.028 170.079 44.376C166.425 45.884 161.495 46.58 156.797 46.58C148.213 46.58 141.253 41.94 141.253 31.036V27.498C141.253 16.362 147.517 11.2 157.377 11.2C168.107 11.2 172.805 17.638 172.805 27.498V31.036ZM160.567 25.758C160.567 22.974 159.871 20.944 157.261 20.944C154.883 20.944 154.013 22.974 154.013 25.758H160.567ZM203.396 35.56C203.396 41.766 199.104 46.58 188.838 46.58C183.85 46.58 180.312 45.826 177.992 45.072C177.354 44.84 176.89 44.492 176.89 43.796V36.546C176.89 35.56 177.238 35.038 178.398 35.212C181.878 35.734 186.46 36.314 188.49 36.314C190.056 36.314 190.52 36.024 190.52 35.154C190.52 34.748 190.346 34.4 189.186 33.82L182.574 30.456C178.514 28.426 176.716 25.41 176.716 20.77C176.716 14.796 181.066 11.2 190.346 11.2C194.638 11.2 198.872 12.07 201.424 12.766C202.062 12.94 202.642 13.288 202.642 13.984V21.524C202.642 22.278 202.41 22.916 201.424 22.742C199.684 22.452 193.362 21.698 191.1 21.698C190.23 21.698 189.882 21.872 189.882 22.336C189.882 22.684 190.056 22.916 190.636 23.206L197.016 26.338C201.772 28.658 203.396 32.138 203.396 35.56Z" fill="url(#paint0_linear_624_156)"/>
<defs>
<linearGradient id="paint0_linear_624_156" x1="-3" y1="31" x2="206" y2="31" gradientUnits="userSpaceOnUse">
<stop stop-color="#8A00F7"/>
<stop offset="1" stop-color="#B352FF"/>
</linearGradient>
</defs>
</svg>
